<svg width="32" height="32" viewBox="0 0 32 32" fill="none" xmlns="http://www.w3.org/2000/svg">
<rect width="32" height="32" fill="black"/>
<path d="M3.42644 14.7177C3.59153 15.2195 3.77164 14.5973 3.96676 14.4066C4.35699 14.0152 4.89731 14.2611 5.23751 14.6625C5.28458 14.7377 5.30955 14.8246 5.30955 14.9134C5.30955 15.0021 5.28458 15.0891 5.23751 15.1643C4.67217 16.0123 4.82726 16.5542 5.78283 16.9155C6.01297 17.0058 6.28313 16.9957 6.50326 17.0911C6.82921 17.2 7.13145 17.3703 7.39378 17.5928C7.57853 17.7338 7.7051 17.9381 7.74938 18.1666C7.79367 18.3952 7.75257 18.6321 7.63392 18.8322C7.35857 19.1196 6.98909 19.2978 6.59331 19.334C6.20984 19.3512 5.82681 19.2912 5.4668 19.1577C5.10679 19.0241 4.77707 18.8196 4.49707 18.5562C4.32697 18.4208 3.75663 17.8939 3.94675 18.1699C4.26693 18.7168 4.59213 19.2587 4.90231 19.8107C5.08075 20.0926 5.19521 20.4105 5.23757 20.7417C5.27994 21.0729 5.24917 21.4095 5.14745 21.7274C5.04713 21.981 5.02257 22.2583 5.07676 22.5256C5.13095 22.793 5.26156 23.0387 5.45263 23.2328C5.62532 23.4127 5.7491 23.634 5.81217 23.8756C5.87523 24.1172 5.87547 24.3709 5.81285 24.6126C5.67209 25.102 5.67867 25.6222 5.83177 26.1079C5.98488 26.5936 6.27766 27.023 6.67336 27.3423C6.68936 27.3534 6.70782 27.3605 6.72716 27.3629C6.74649 27.3653 6.76612 27.3629 6.78434 27.356C6.80256 27.3491 6.81883 27.3378 6.83174 27.3232C6.84466 27.3086 6.85383 27.291 6.85847 27.272C7.30873 24.9338 6.76841 22.5052 7.68395 20.2773C7.754 20.0616 7.85906 20.1669 7.85405 20.2773C7.89908 20.7791 7.93911 21.2809 7.98413 21.8178C8.05166 22.6929 8.31416 23.5417 8.7523 24.3016C9.19043 25.0615 9.79301 25.7131 10.5156 26.2083C11.3061 26.7753 12.1416 27.2821 12.9721 27.7889C13.9963 28.3888 14.8868 29.1932 15.5886 30.1522C15.7687 30.4081 15.9739 30.654 16.164 30.8898C17.3897 32.5206 19.7611 32.2546 20.9568 30.7443C21.0731 30.535 21.1237 30.2954 21.1019 30.0569C21.1019 29.1236 21.1019 28.1903 21.1019 27.257C22.8779 26.6348 23.8235 25.551 24.1337 23.7747C24.1037 23.7747 24.0536 23.7747 24.0436 23.8098C23.003 25.6915 21.352 25.9925 19.4459 25.576C17.5398 25.1596 15.6487 24.713 13.7676 24.2263C12.7101 24.008 11.7431 23.4744 10.9932 22.6954C10.2433 21.9164 9.74551 20.9284 9.56507 19.8609C9.23487 18.2552 8.93469 16.6445 8.62951 15.0338C8.61425 14.8434 8.61425 14.6521 8.62951 14.4618C9.34994 14.5772 9.51504 15.1894 9.85024 15.7263C9.98031 15.2668 9.99399 14.782 9.89003 14.3158C9.78607 13.8497 9.56775 13.4169 9.25488 13.0568C9.24067 13.0369 9.23089 13.0142 9.2262 12.9902C9.22152 12.9662 9.22204 12.9414 9.22773 12.9176C9.23343 12.8938 9.24416 12.8715 9.25921 12.8523C9.27425 12.833 9.29325 12.8172 9.31492 12.8059L10.0203 12.4597C10.0357 12.454 10.0489 12.4437 10.0582 12.4303C10.0675 12.4168 10.0725 12.4008 10.0725 12.3844C10.0725 12.3681 10.0675 12.3521 10.0582 12.3386C10.0489 12.3252 10.0357 12.3149 10.0203 12.3092C9.54389 12.142 9.11786 11.8556 8.78256 11.4772C8.44726 11.0987 8.21377 10.6407 8.1042 10.1465C8.0972 10.1304 8.08566 10.1167 8.07099 10.1071C8.05633 10.0974 8.03918 10.0923 8.02165 10.0923C8.00413 10.0923 7.98698 10.0974 7.97232 10.1071C7.95765 10.1167 7.94611 10.1304 7.93911 10.1465C7.76001 10.5581 7.69435 11.0104 7.74899 11.4562C7.75494 11.5298 7.74053 11.6036 7.70735 11.6695C7.67417 11.7354 7.6235 11.7909 7.56092 11.8298C7.49835 11.8687 7.42628 11.8895 7.35266 11.89C7.27904 11.8905 7.20671 11.8706 7.14364 11.8325C6.14304 11.2203 5.98295 10.1315 6.80343 9.1179C7.1757 8.66899 7.57501 8.24337 7.99914 7.8434C8.67954 7.15598 8.68455 6.21766 8.1042 6.01193C7.99414 5.97681 7.46382 5.80621 7.86406 5.67575C8.11878 5.568 8.40087 5.54347 8.67029 5.60561C8.9397 5.66776 9.18275 5.81344 9.36495 6.02197C9.55529 6.21869 9.67524 6.47315 9.70602 6.74553C9.7368 7.01791 9.67667 7.29283 9.53505 7.52729C9.28101 7.96898 9.05542 8.42653 8.85965 8.89713C8.62451 9.55947 8.85965 10.0813 9.6201 10.4727C9.63092 10.4814 9.64459 10.4856 9.6584 10.4846C9.67221 10.4836 9.68514 10.4775 9.69461 10.4673C9.70408 10.4572 9.70939 10.4439 9.70949 10.43C9.70959 10.4161 9.70447 10.4027 9.69514 10.3924C9.31492 9.67487 9.84523 9.28851 10.1654 8.81182C10.6485 8.13962 11.0626 7.42009 11.4012 6.66424C12.0866 4.94818 11.3661 3.6536 9.56507 3.24215C9.1048 3.13176 8.6045 3.09663 8.37436 2.61493C8.36401 2.59575 8.34919 2.57935 8.33116 2.56715C8.31313 2.55494 8.29244 2.54728 8.27082 2.54481C8.24921 2.54235 8.22732 2.54516 8.20702 2.553C8.18673 2.56084 8.16862 2.57348 8.15423 2.58984C7.65394 3.15183 7.73398 3.52314 8.4344 4.28584C8.46516 4.31975 8.48667 4.36106 8.49682 4.40576C8.50697 4.45046 8.50543 4.49704 8.49234 4.54097C8.47925 4.58489 8.45506 4.62468 8.42211 4.65647C8.38917 4.68826 8.34859 4.71096 8.30432 4.72238C8.11992 4.78283 7.92469 4.80273 7.73193 4.78074C7.53917 4.75874 7.35339 4.69535 7.18724 4.59489C7.02109 4.49443 6.87846 4.35925 6.76907 4.19856C6.65968 4.03786 6.58608 3.85542 6.55329 3.66364C6.53933 3.61815 6.51617 3.57603 6.48526 3.53992C6.45434 3.50381 6.41634 3.47448 6.37361 3.45376C6.33089 3.43304 6.28437 3.42138 6.23695 3.4195C6.18953 3.41763 6.14223 3.42558 6.09802 3.44286C5.94266 3.49404 5.80892 3.59603 5.71821 3.73249C5.6275 3.86896 5.58507 4.032 5.59772 4.19552C5.60117 4.51564 5.53595 4.83277 5.40647 5.12539C5.27698 5.41802 5.08628 5.67929 4.84728 5.89151C4.24692 6.4284 4.26693 6.8248 4.68218 7.55238C5.01738 8.13945 4.95734 8.19966 4.32697 8.41542C4.00841 8.53179 3.74564 8.76486 3.59153 9.06773C3.40024 9.40558 3.27462 9.77676 3.22132 10.1616C3.22132 10.4476 3.44145 10.8239 3.39142 11.1049C3.31137 11.5214 2.691 12.1436 3.1963 11.8526C3.52445 11.6453 3.90673 11.5408 4.29436 11.5524C4.68199 11.564 5.05737 11.6912 5.37259 11.9178C5.62962 12.1165 5.84153 12.3679 5.99421 12.6551C6.14689 12.9423 6.23685 13.2589 6.25811 13.5837C5.41261 12.9916 4.66717 12.0784 3.60654 12.9113C3.04621 13.4131 3.24633 14.0553 3.42644 14.7177ZM5.49766 7.04559C5.40913 6.91971 5.36674 6.767 5.37768 6.61335C5.38862 6.4597 5.45222 6.31458 5.5577 6.20261C5.62773 6.10885 5.73004 6.04459 5.84471 6.02233C5.95938 6.00007 6.07821 6.0214 6.17806 6.08218L7.17866 6.70438C7.5889 6.90509 6.99855 7.11583 6.77842 7.1359C6.34817 7.16601 5.67777 7.28142 5.49766 7.04559Z" fill="white"/>
<path d="M19.7011 8.89713C19.7922 8.92737 19.8783 8.97136 19.9562 9.02759C20.5065 9.37883 20.6366 9.80534 20.2414 10.3322C19.9376 10.7231 19.5727 11.062 19.1607 11.3357C19.0755 11.3954 18.9783 11.4357 18.8759 11.4538C18.7735 11.4719 18.6685 11.4675 18.568 11.4407C18.4675 11.414 18.374 11.3656 18.2941 11.2989C18.2142 11.2323 18.1497 11.1489 18.1051 11.0547C17.6048 10.0913 16.8694 9.73509 15.8288 10.1014C15.1934 10.3222 14.6231 10.7286 13.9977 10.9945C13.7116 11.1263 13.3935 11.1716 13.0822 11.125C12.7392 11.0412 12.4044 10.927 12.0816 10.7838C12.0251 10.7603 11.9749 10.7238 11.935 10.6772C11.8952 10.6306 11.8668 10.5753 11.8522 10.5158C11.8376 10.4562 11.8372 10.394 11.8509 10.3342C11.8647 10.2744 11.8923 10.2187 11.9315 10.1716C12.5819 9.40893 13.1872 8.66631 13.8226 7.98892C14.027 7.73117 14.3068 7.54416 14.6227 7.45415C14.9386 7.36415 15.2746 7.37569 15.5836 7.48714C16.929 8.03329 18.3036 8.50401 19.7011 8.89713Z" fill="white"/>
<path d="M18.3853 20.468C17.9867 20.5145 17.5859 20.5396 17.1846 20.5433C17.2596 19.9662 17.4497 19.6601 17.89 19.9261C18.0785 20.0534 18.3081 20.1045 18.5327 20.0692C18.7572 20.0338 18.9602 19.9146 19.1007 19.7354C19.3578 19.4452 19.7039 19.2492 20.0844 19.1783C20.4649 19.1074 20.8582 19.1657 21.202 19.344C21.4176 19.4097 21.642 19.4419 21.8673 19.4394V19.2989C21.6395 19.1638 21.4337 18.9946 21.257 18.7971C20.7567 18.0996 20.2214 17.6129 19.3058 17.7434C19.2031 17.7542 19.0993 17.7369 19.0057 17.6932C18.5054 17.4523 18.5554 16.9757 18.6104 16.5542C18.6655 16.1327 19.0307 16.3585 19.2908 16.3484C19.551 16.3384 20.0313 16.3484 20.2214 16.1728C20.8267 15.5958 21.4371 15.7112 22.1175 15.937C22.6778 16.1227 23.2632 16.3434 23.8035 15.8417C23.9293 16.1142 23.9726 16.4177 23.9282 16.7147C23.8837 17.0117 23.7534 17.2891 23.5533 17.5126C23.4221 17.6397 23.3281 17.8004 23.2813 17.9773C23.2346 18.1542 23.237 18.3405 23.2882 18.5161C23.3482 19.0681 23.5183 19.6852 22.8579 20.0816C22.7779 20.1268 22.8329 20.5282 22.933 20.6988C22.977 20.8096 23.0539 20.9041 23.1532 20.9696C23.2525 21.0351 23.3695 21.0684 23.4883 21.0651C23.8385 21.0651 23.1281 21.9382 22.988 21.7425L22.7479 21.3612C21.8623 19.8057 20.9518 19.4895 19.3158 20.1519C19.0178 20.2903 18.7058 20.3963 18.3853 20.468Z" fill="white"/>
<path d="M23.9586 4.63708C23.7084 4.53672 23.7485 5.13885 23.6834 4.98832C23.5183 4.59693 23.028 3.483 23.0631 3.75396C23.0222 4.22388 22.9316 4.68812 22.7929 5.13885C22.7629 5.25927 22.6278 5.38973 22.6228 5.13885C22.5628 4.17544 21.8373 3.63353 21.312 2.94108C21.0557 2.57084 20.8218 2.18545 20.6116 1.78701C20.5416 1.70171 20.7167 1.59633 20.8017 1.65153L22.3626 2.76045C22.4177 2.79557 22.4977 2.81062 22.4727 2.72532C22.3626 2.16334 21.4371 0.918941 21.6572 0.954065C22.23 1.08122 22.74 1.40624 23.0981 1.87231C23.6031 2.4365 24.182 2.92938 24.8191 3.33749C26.5751 4.34103 27.0604 5.24924 26.7102 7.26636C26.6602 7.56743 26.5801 8.02404 26.8153 8.2097C27.3556 8.63119 26.5401 10.4275 26.5251 9.8806C26.5601 7.6728 26.0848 5.73596 23.9586 4.63708Z" fill="white"/>
<path d="M22.7879 12.4346C22.6786 11.9305 22.6067 11.419 22.5728 10.9042C22.5508 10.762 22.5677 10.6165 22.6215 10.4831C22.6753 10.3497 22.7641 10.2334 22.8784 10.1465C22.9928 10.0596 23.1284 10.0053 23.271 9.98943C23.4136 9.97353 23.5578 9.99661 23.6884 10.0562C24.4731 10.3159 25.2305 10.652 25.9498 11.0598C26.1079 11.1622 26.2405 11.2996 26.3377 11.4614C26.4348 11.6231 26.4937 11.805 26.5101 11.9931C26.425 12.9665 26.1849 13.9199 25.9748 15.0338L24.9191 14.3865C25.1114 14.1625 25.2172 13.8768 25.2172 13.5812C25.2172 13.2856 25.1114 12.9998 24.9191 12.7758C24.4489 12.1185 23.8785 12.0081 22.7879 12.4346Z" fill="white"/>
<path d="M17.7149 0.622896L18.5054 1.42071C18.5394 1.45518 18.5821 1.47984 18.6289 1.49212C18.6757 1.50439 18.7249 1.50384 18.7715 1.4905C18.818 1.47717 18.8601 1.45156 18.8933 1.41633C18.9266 1.3811 18.9499 1.33756 18.9606 1.29025C19.0407 0.94403 19.0757 0.642966 19.3108 0.939012C19.7211 1.66658 19.7611 2.41924 20.3665 3.08158C20.3909 3.10603 20.4073 3.13734 20.4135 3.17136C20.4198 3.20539 20.4156 3.24051 20.4015 3.27208C20.3874 3.30365 20.364 3.33017 20.3345 3.34813C20.305 3.36608 20.2708 3.37462 20.2364 3.37261C18.6404 3.27225 17.0145 2.2386 17.2696 0.748339C17.282 0.703369 17.3058 0.662368 17.3386 0.629307C17.3714 0.596246 17.4122 0.572245 17.457 0.559629C17.5018 0.547012 17.549 0.546206 17.5942 0.55729C17.6394 0.568374 17.681 0.590972 17.7149 0.622896Z" fill="white"/>
<path d="M13.1422 5.07362C13.1279 5.08769 13.1097 5.09714 13.09 5.10074C13.0703 5.10435 13.05 5.10194 13.0317 5.09383C13.0134 5.08573 12.9979 5.07229 12.9873 5.05527C12.9766 5.03825 12.9714 5.01842 12.9721 4.99835C12.9631 4.62774 12.8641 4.26492 12.6836 3.94138C12.5032 3.61785 12.2467 3.34338 11.9365 3.14179C11.5362 2.8608 11.071 2.64002 10.6607 2.38914C10.3906 2.2085 9.43499 1.71676 9.89526 1.71676L11.9415 2.01281C12.3259 2.03407 12.696 2.16609 13.0075 2.39304C13.3189 2.61999 13.5585 2.93224 13.6975 3.29233C13.7928 3.61091 13.7909 3.95083 13.6919 4.26829C13.5929 4.58576 13.4015 4.86624 13.1422 5.07362Z" fill="white"/>
<path d="M15.9088 1.55619C15.7287 1.39061 15.5236 1.24509 15.3485 1.05442C14.9583 0.668055 14.9633 0.311796 15.4335 0.0157502C15.9038 -0.134782 16.169 0.83364 16.5042 1.22001C17.0045 1.77196 17.0045 2.14327 16.6893 2.49953C16.4591 2.76546 16.5042 2.11316 15.9088 1.55619Z" fill="white"/>
<path d="M22.0074 21.5769C22.0474 21.8228 21.4421 21.5769 21.0419 21.7375C20.9385 21.7652 20.8295 21.7645 20.7265 21.7353C20.6235 21.7062 20.5302 21.6497 20.4565 21.5719L20.0563 21.2207C20.0279 21.1954 20.0074 21.1624 19.9974 21.1257C19.9874 21.089 19.9883 21.0502 20 21.0139C20.0117 20.9777 20.0336 20.9457 20.0632 20.9218C20.0927 20.898 20.1286 20.8832 20.1663 20.8795C21.2019 20.764 21.9224 20.9096 22.0074 21.5769Z" fill="white"/>
<path d="M6.46824 17.7434C6.67836 17.6982 6.80343 17.8588 6.85847 18.0294C6.94852 18.3355 6.59331 18.3505 6.49325 18.3305C6.09312 18.243 5.69879 18.1308 5.31255 17.9943C5.11744 17.9441 4.95734 17.8136 5.37759 17.8086C5.74231 17.8172 6.10712 17.7954 6.46824 17.7434Z" fill="white"/>
<path d="M14.5032 6L13 13.5202L29 17L28.7151 11.7332L14.5032 6Z" fill="#BE1E2D"/>
</svg>
