<svg width="59" height="52" fill="none" xmlns="http://www.w3.org/2000/svg"><path d="M9.877 33.95c.667-1.207 2.403-1.207 3.07 0a3.254 3.254 0 002.231 1.622c1.355.261 1.891 1.912.95 2.92a3.254 3.254 0 00-.853 2.623c.17 1.369-1.234 2.39-2.484 1.804a3.254 3.254 0 00-2.758 0c-1.25.585-2.654-.435-2.484-1.804a3.254 3.254 0 00-.852-2.623c-.942-1.008-.406-2.659.949-2.92a3.254 3.254 0 002.23-1.621zM47.219 33.96c.702-1.236 2.502-1.236 3.205 0 .476.837 1.3 1.429 2.25 1.607l.092.017c1.352.254 1.882 1.909.928 2.9-.678.706-1 1.683-.876 2.651.176 1.374-1.223 2.405-2.473 1.837l-.139-.064c-.88-.4-1.89-.4-2.77 0l-.139.064c-1.25.568-2.648-.463-2.473-1.837a3.236 3.236 0 00-.875-2.65c-.954-.992-.425-2.647.928-2.9l-.139-.738.139.737.092-.017a3.291 3.291 0 002.25-1.608zM27.637 34.864c.921-1.628 3.285-1.628 4.206 0a3.864 3.864 0 002.642 1.895l.092.017c1.796.339 2.5 2.534 1.237 3.854a3.808 3.808 0 00-1.024 3.11c.231 1.82-1.624 3.185-3.282 2.427l-.139-.063a3.918 3.918 0 00-3.258 0l.312.682-.312-.682-.139.063c-1.658.758-3.513-.608-3.282-2.426a3.808 3.808 0 00-1.024-3.11c-1.263-1.321-.559-3.516 1.237-3.855l.092-.017a3.864 3.864 0 002.642-1.895zM35.518 9.285c0 4.338-2.743 7.536-5.778 7.536-3.034 0-5.778-3.198-5.778-7.536 0-4.338 2.744-7.535 5.778-7.535 3.035 0 5.778 3.197 5.778 7.535zM15.179 31.129c-.02-2.335.275-7.114 1.614-7.548 1.34-.435 5.94-1.51 8.073-1.993l4.845 5.012 4.604-5.012s5.98 1.208 7.475 1.993c1.495.785 2.512 3.683 2.512 7.125M22.71 18.982l-6.339-1.42-3.673 3.549-3.258-3.55-6.694 1.42c-.376.395-1.126 2.07-1.126 5.62M7.189 7.86c0 3.79 2.466 6.862 5.51 6.862 3.042 0 5.509-3.072 5.509-6.862S15.74 1 12.698 1c-3.043 0-5.51 3.072-5.51 6.861zM36.77 18.982l6.339-1.42 3.673 3.549 3.258-3.55 6.694 1.42c.376.395 1.126 2.07 1.126 5.62M52.291 7.86c0 3.79-2.466 6.862-5.51 6.862-3.042 0-5.509-3.072-5.509-6.862S43.74 1 46.782 1c3.043 0 5.51 3.072 5.51 6.861z" stroke="#fff" stroke-width="1.5"/></svg>