<svg width="61" height="54" fill="none" xmlns="http://www.w3.org/2000/svg"><path d="M27.412.93h14.017m-14.017 0l5.65 5.228a2 2 0 002.717 0L41.429.93m-14.017 0L12.123 16.218M41.43.929l17.926 17.926a2 2 0 010 2.828L29.237 51.8a2 2 0 01-2.829 0l-5.205-5.205M10.453 3.047h6.17m-15.34 13.17h10.84m6.618 0h-6.618m-3.11 3.111l-6.125 6.124a2 2 0 000 2.829l14.146 14.145m-8.419 0h8.419m7.796 0h-7.796m11.37-26.54l10.524 10.458M25.757 18.93l10.457 10.59m-13.766-7.28l7.28 7.28" stroke="#fff" stroke-width="1.5" stroke-linecap="round" stroke-linejoin="round"/></svg>