<svg width="53" height="39" fill="none" xmlns="http://www.w3.org/2000/svg"><path d="M21.506 31.52v0a2.66 2.66 0 01-2.66-2.659v-.116a2.66 2.66 0 012.66-2.659v0m0 5.434v6.271m0-6.27h11.128m0 0v0a2.59 2.59 0 002.59-2.59v-.256a2.59 2.59 0 00-2.59-2.589v0m0 5.434V38m0-11.914H21.506m11.128 0v0a9.633 9.633 0 00.621-8.821l-2.334-5.421a2.026 2.026 0 00-1.86-1.225v0a2.026 2.026 0 00-2.026 2.026v5.707m-5.529 7.734v0a9.804 9.804 0 01-.43-8.714l2.95-6.753M4.5 26.086s.062-19.704 19-21.89m25 21.89s1-20.21-18.666-21.965M8.44 4H23.5m21.13 0H29.835" stroke="#fff" stroke-width="1.5" stroke-linecap="round" stroke-linejoin="round"/><rect x="45.5" y="26" width="6" height="6" rx="2" stroke="#fff" stroke-width="1.5" stroke-linecap="round" stroke-linejoin="round"/><rect x="45.5" y="1" width="6" height="6" rx="2" stroke="#fff" stroke-width="1.5" stroke-linecap="round" stroke-linejoin="round"/><rect x="23.5" y="1" width="6" height="6" rx="2" stroke="#fff" stroke-width="1.5" stroke-linecap="round" stroke-linejoin="round"/><path d="M7.5 26h-4a2 2 0 00-2 2v2a2 2 0 002 2h4" stroke="#fff" stroke-width="1.5" stroke-linecap="round" stroke-linejoin="round"/><rect x="1.5" y="1" width="6" height="6" rx="2" stroke="#fff" stroke-width="1.5" stroke-linecap="round" stroke-linejoin="round"/><circle cx="26.5" cy="21" r="3" stroke="#fff" stroke-width="1.5" stroke-linecap="round" stroke-linejoin="round"/></svg>