<svg width="562" height="288" fill="none" xmlns="http://www.w3.org/2000/svg"><path d="M61.58 23.31c-10.472 0-18.581 3.945-24.326 11.835-5.746 7.83-8.618 18.768-8.618 32.813 0 29.228 10.981 43.842 32.944 43.842 9.217 0 20.378-2.301 33.484-6.904v23.311c-10.772 4.483-22.801 6.724-36.087 6.724-19.09 0-33.692-5.768-43.806-17.304C5.057 106.032 0 89.416 0 67.779c0-13.627 2.484-25.551 7.45-35.772 4.968-10.28 12.09-18.14 21.365-23.58C38.151 2.93 49.073.18 61.581.18 74.326.18 87.133 3.257 100 9.414l-8.977 22.593a148.659 148.659 0 00-14.811-6.097c-4.967-1.733-9.845-2.6-14.632-2.6zM343.369 67.42c0 21.697-5.387 38.373-16.159 50.028-10.772 11.655-26.212 17.483-46.32 17.483-.685 0-102.541-.007-103.215-.02-19.116-.384-33.876-6.205-44.28-17.463-10.773-11.655-16.159-28.39-16.159-50.207 0-21.816 5.386-38.462 16.159-49.938C143.826 6.195 158.586.435 177.675.023 178.408.009 280.324 0 281.07 0c20.168 0 35.578 5.798 46.23 17.393 10.712 11.595 16.069 28.271 16.069 50.028zm-196.958 0c0 14.644 2.783 25.672 8.348 33.083 5.219 6.949 12.857 10.641 22.916 11.074.669.029 102.525.044 103.215.044 22.203 0 33.304-14.734 33.304-44.2 0-29.527-11.041-44.29-33.124-44.29-.753 0-102.668.017-103.395.052-9.974.473-17.583 4.191-22.826 11.155-5.625 7.411-8.438 18.439-8.438 33.083zM418.731 133.138L387.133 30.303h-.808c1.137 20.92 1.706 34.876 1.706 41.87v60.965h-24.866V2.062h37.882l31.059 100.234h.539L465.59 2.062h37.882v131.076h-25.943V71.097c0-2.93.03-6.306.09-10.131.119-3.826.538-13.987 1.256-30.483h-.808l-33.842 102.655h-25.494zM530.581 120.317c0-5.021 1.347-8.816 4.04-11.386 2.693-2.57 6.613-3.855 11.759-3.855 4.968 0 8.798 1.315 11.491 3.945 2.753 2.629 4.129 6.395 4.129 11.296 0 4.722-1.376 8.458-4.129 11.207-2.753 2.69-6.583 4.034-11.491 4.034-5.027 0-8.916-1.314-11.669-3.944-2.753-2.69-4.13-6.456-4.13-11.297zM112.658 155.131v84.814c0 9.683-2.184 18.17-6.553 25.462-4.309 7.292-10.563 12.88-18.761 16.765C79.145 286.057 69.45 288 58.259 288c-16.876 0-29.982-4.303-39.318-12.91-9.336-8.667-14.004-20.501-14.004-35.504v-84.455h27.738v80.241c0 10.102 2.035 17.513 6.105 22.235 4.069 4.722 10.802 7.083 20.197 7.083 9.097 0 15.68-2.361 19.75-7.083 4.128-4.782 6.193-12.253 6.193-22.414v-80.062h27.738zM261.223 286.207h-35.368l-57.092-99.159h-.808c1.137 17.513 1.706 30.005 1.706 37.476v61.683h-24.866V155.131h35.099l57.002 98.172h.629c-.898-17.034-1.347-29.078-1.347-36.131v-62.041h25.045v131.076zM294.348 286.207V155.131h27.828v131.076h-27.828zM405.839 286.207h-27.828V178.262h-35.638v-23.131h99.104v23.131h-35.638v107.945zM502.518 209.104l27.38-53.973h29.982l-43.537 80.062v51.014h-27.649V236.09l-43.537-80.959h30.162l27.199 53.973z" fill="#fff"/></svg>