<svg width="2228" height="269" fill="none" xmlns="http://www.w3.org/2000/svg"><g opacity=".06"><mask id="a" maskUnits="userSpaceOnUse" x="0" y="0" width="2228" height="269" fill="#000"><path fill="#fff" d="M0 0h2228v269H0z"/><path d="M122.252 47.569c-20.451 0-36.286 7.711-47.505 23.135-11.219 15.306-16.828 36.688-16.828 64.147 0 57.136 21.444 85.704 64.333 85.704 17.996 0 39.791-4.499 65.384-13.495v45.568c-21.035 8.764-44.524 13.145-70.468 13.145-37.28 0-65.794-11.275-85.543-33.826C11.875 209.28 2 176.797 2 134.5c0-26.64 4.85-49.95 14.55-69.93 9.699-20.098 23.606-35.462 41.72-46.095C76.5 7.725 97.826 2.35 122.251 2.35c24.891 0 49.9 6.017 75.025 18.052l-17.529 44.166c-9.583-4.556-19.224-8.53-28.923-11.918-9.7-3.388-19.224-5.082-28.573-5.082zM672.514 133.799c0 42.414-10.517 75.013-31.552 97.798-21.036 22.784-51.186 34.176-90.452 34.176-1.339 0-200.238-.013-201.555-.04-37.327-.75-66.15-12.129-86.468-34.136-21.036-22.785-31.553-55.501-31.553-98.149 0-42.647 10.517-75.188 31.553-97.622 20.369-21.716 49.192-32.976 86.468-33.78C350.387 2.016 549.403 2 550.86 2c39.383 0 69.475 11.334 90.277 34.001 20.918 22.668 31.377 55.267 31.377 97.798zm-384.61 0c0 28.626 5.434 50.184 16.303 64.673 10.19 13.584 25.106 20.8 44.748 21.648 1.307.056 200.206.084 201.555.084 43.356 0 65.034-28.801 65.034-86.405 0-57.72-21.561-86.58-64.684-86.58-1.469 0-200.485.033-201.905.1-19.477.926-34.335 8.194-44.573 21.807-10.985 14.489-16.478 36.046-16.478 64.673zM819.679 262.268L757.976 61.239h-1.578c2.22 40.895 3.33 68.178 3.33 81.849v119.18h-48.556V6.031h73.974l60.652 195.946h1.051L911.182 6.031h73.974v256.237h-50.66V140.985c0-5.726.059-12.327.176-19.805.234-7.478 1.052-27.341 2.454-59.59h-1.578l-66.086 200.678h-49.783zM1038.1 237.205c0-9.815 2.62-17.234 7.88-22.259 5.26-5.024 12.92-7.536 22.97-7.536 9.7 0 17.18 2.571 22.43 7.712 5.38 5.141 8.07 12.502 8.07 22.083 0 9.231-2.69 16.533-8.07 21.908-5.37 5.258-12.85 7.887-22.43 7.887-9.82 0-17.42-2.571-22.79-7.712-5.38-5.258-8.06-12.619-8.06-22.083zM1350.69 6.166v165.8c0 18.929-4.27 35.521-12.8 49.776-8.41 14.254-20.63 25.179-36.64 32.774-16.01 7.595-34.94 11.392-56.79 11.392-32.96 0-58.55-8.412-76.78-25.238-18.23-16.942-27.35-40.077-27.35-69.405V6.166h54.17v156.862c0 19.746 3.97 34.235 11.92 43.466 7.95 9.23 21.09 13.845 39.44 13.845 17.76 0 30.62-4.615 38.56-13.845 8.07-9.348 12.1-23.953 12.1-43.817V6.167h54.17zM1640.8 262.403h-69.07L1460.24 68.56h-1.57c2.22 34.235 3.33 58.656 3.33 73.261v120.582h-48.56V6.166h68.54l111.31 191.915h1.23c-1.75-33.3-2.63-56.844-2.63-70.632V6.166h48.91v256.237zM1705.48 262.403V6.166h54.34v256.237h-54.34zM1923.2 262.403h-54.35V51.384h-69.59V6.166h193.53v45.218h-69.59v211.019zM2111.99 111.675l53.46-105.509H2224l-85.02 156.511v99.726h-53.99V164.43L1999.97 6.166h58.9l53.12 105.509z"/></mask><path d="M122.252 47.569c-20.451 0-36.286 7.711-47.505 23.135-11.219 15.306-16.828 36.688-16.828 64.147 0 57.136 21.444 85.704 64.333 85.704 17.996 0 39.791-4.499 65.384-13.495v45.568c-21.035 8.764-44.524 13.145-70.468 13.145-37.28 0-65.794-11.275-85.543-33.826C11.875 209.28 2 176.797 2 134.5c0-26.64 4.85-49.95 14.55-69.93 9.699-20.098 23.606-35.462 41.72-46.095C76.5 7.725 97.826 2.35 122.251 2.35c24.891 0 49.9 6.017 75.025 18.052l-17.529 44.166c-9.583-4.556-19.224-8.53-28.923-11.918-9.7-3.388-19.224-5.082-28.573-5.082zM672.514 133.799c0 42.414-10.517 75.013-31.552 97.798-21.036 22.784-51.186 34.176-90.452 34.176-1.339 0-200.238-.013-201.555-.04-37.327-.75-66.15-12.129-86.468-34.136-21.036-22.785-31.553-55.501-31.553-98.149 0-42.647 10.517-75.188 31.553-97.622 20.369-21.716 49.192-32.976 86.468-33.78C350.387 2.016 549.403 2 550.86 2c39.383 0 69.475 11.334 90.277 34.001 20.918 22.668 31.377 55.267 31.377 97.798zm-384.61 0c0 28.626 5.434 50.184 16.303 64.673 10.19 13.584 25.106 20.8 44.748 21.648 1.307.056 200.206.084 201.555.084 43.356 0 65.034-28.801 65.034-86.405 0-57.72-21.561-86.58-64.684-86.58-1.469 0-200.485.033-201.905.1-19.477.926-34.335 8.194-44.573 21.807-10.985 14.489-16.478 36.046-16.478 64.673zM819.679 262.268L757.976 61.239h-1.578c2.22 40.895 3.33 68.178 3.33 81.849v119.18h-48.556V6.031h73.974l60.652 195.946h1.051L911.182 6.031h73.974v256.237h-50.66V140.985c0-5.726.059-12.327.176-19.805.234-7.478 1.052-27.341 2.454-59.59h-1.578l-66.086 200.678h-49.783zM1038.1 237.205c0-9.815 2.62-17.234 7.88-22.259 5.26-5.024 12.92-7.536 22.97-7.536 9.7 0 17.18 2.571 22.43 7.712 5.38 5.141 8.07 12.502 8.07 22.083 0 9.231-2.69 16.533-8.07 21.908-5.37 5.258-12.85 7.887-22.43 7.887-9.82 0-17.42-2.571-22.79-7.712-5.38-5.258-8.06-12.619-8.06-22.083zM1350.69 6.166v165.8c0 18.929-4.27 35.521-12.8 49.776-8.41 14.254-20.63 25.179-36.64 32.774-16.01 7.595-34.94 11.392-56.79 11.392-32.96 0-58.55-8.412-76.78-25.238-18.23-16.942-27.35-40.077-27.35-69.405V6.166h54.17v156.862c0 19.746 3.97 34.235 11.92 43.466 7.95 9.23 21.09 13.845 39.44 13.845 17.76 0 30.62-4.615 38.56-13.845 8.07-9.348 12.1-23.953 12.1-43.817V6.167h54.17zM1640.8 262.403h-69.07L1460.24 68.56h-1.57c2.22 34.235 3.33 58.656 3.33 73.261v120.582h-48.56V6.166h68.54l111.31 191.915h1.23c-1.75-33.3-2.63-56.844-2.63-70.632V6.166h48.91v256.237zM1705.48 262.403V6.166h54.34v256.237h-54.34zM1923.2 262.403h-54.35V51.384h-69.59V6.166h193.53v45.218h-69.59v211.019zM2111.99 111.675l53.46-105.509H2224l-85.02 156.511v99.726h-53.99V164.43L1999.97 6.166h58.9l53.12 105.509z" stroke="#fff" stroke-width="4" mask="url(#a)"/></g></svg>