<svg width="312" height="68" fill="none" xmlns="http://www.w3.org/2000/svg"><path d="M87.514 19.926v4.92H76.588c-5.404 0-7.833 2.694-7.833 9.137 0 6.442 2.35 9.136 7.833 9.136h10.926v4.92H76.588c-8.224 0-12.728-4.647-12.728-14.056 0-9.41 4.543-14.057 12.728-14.057h10.926zM108.466 19.926c8.185 0 12.767 4.647 12.767 14.096s-4.503 14.017-12.767 14.017h-3.916c-8.224 0-12.728-4.608-12.728-14.017 0-9.41 4.543-14.096 12.728-14.096h3.916zm-3.916 4.92c-5.404 0-7.832 2.733-7.832 9.176 0 6.442 2.35 9.097 7.832 9.097h3.916c5.444 0 7.833-2.694 7.833-9.136 0-6.443-2.35-9.137-7.833-9.137h-3.916zM128.048 48.039H122.8l8.733-23.427a6.48 6.48 0 012.367-3.823 6.513 6.513 0 014.291-1.37 5.694 5.694 0 014.587 1.587 5.656 5.656 0 011.679 4.542v16.595a1.446 1.446 0 00.351 1.11 1.446 1.446 0 001.059.49 1.649 1.649 0 001.566-1.17l6.853-17.961a6.48 6.48 0 012.367-3.823 6.516 6.516 0 014.291-1.37 5.655 5.655 0 014.603 1.571 5.623 5.623 0 011.663 4.559v22.49h-4.974V25.783a1.433 1.433 0 00-.335-1.136 1.447 1.447 0 00-1.074-.504 1.763 1.763 0 00-1.567 1.21l-6.853 17.961a6.44 6.44 0 01-2.359 3.833 6.478 6.478 0 01-4.299 1.36 5.658 5.658 0 01-4.576-1.588 5.633 5.633 0 01-1.34-2.085 5.625 5.625 0 01-.311-2.457V25.783a1.478 1.478 0 00-.853-1.502 1.492 1.492 0 00-.596-.138 1.679 1.679 0 00-1.566 1.21l-8.459 22.686zM178.019 42.377v5.662h-4.739v-5.662h4.739zM187.731 19.926v18.781c0 2.772 1.41 4.412 4.661 4.412h5.012a3.927 3.927 0 003.486-.993 3.904 3.904 0 001.175-3.419v-18.78h4.817v19.132a8.029 8.029 0 01-2.336 6.739 8.09 8.09 0 01-6.789 2.241h-5.953a8.049 8.049 0 01-6.78-2.24 7.999 7.999 0 01-2.306-6.74V19.926h5.013zM218.396 48.039h-4.935v-22.49a5.686 5.686 0 011.756-4.61 5.717 5.717 0 014.706-1.52 6.673 6.673 0 014.382 1.343 6.63 6.63 0 012.471 3.85L235 42.572a1.962 1.962 0 001.802 1.171 1.53 1.53 0 001.58-.954c.081-.205.117-.426.104-.646V19.926h4.974v22.451a5.744 5.744 0 01-3.971 5.903 5.77 5.77 0 01-2.53.227 6.712 6.712 0 01-4.399-1.34 6.677 6.677 0 01-2.494-3.853l-8.224-17.96a1.718 1.718 0 00-1.762-1.21 1.536 1.536 0 00-1.23.424 1.524 1.524 0 00-.454 1.215V48.04zM255.13 19.926V48.04h-4.895V19.926h4.895zM281.173 19.926v4.92h-8.224v23.193h-4.974V24.846h-8.224v-4.92h21.422zM289.75 19.926l7.832 12.026 7.833-12.026h5.835l-11.161 15.93V48h-4.974V35.857l-11.357-15.97 5.992.04zM1.656 31.259c.35 1.066.733-.256 1.147-.66.83-.832 1.977-.31 2.7.543a1.004 1.004 0 010 1.065c-1.201 1.801-.872 2.952 1.157 3.72.49.191 1.063.17 1.53.373a5.734 5.734 0 011.892 1.065 2.015 2.015 0 01.51 2.633c-.585.61-1.37.989-2.21 1.065a6.093 6.093 0 01-4.452-1.651c-.362-.288-1.573-1.407-1.17-.821.68 1.162 1.372 2.313 2.03 3.485a4.848 4.848 0 01.521 4.07 2.992 2.992 0 00.648 3.198 3.104 3.104 0 01.765 2.93 5.504 5.504 0 001.828 5.798.255.255 0 00.393-.149c.956-4.966-.191-10.124 1.753-14.856.149-.458.372-.234.361 0 .096 1.066.181 2.131.277 3.272.143 1.858.7 3.661 1.631 5.275a12.444 12.444 0 003.745 4.05c1.68 1.204 3.454 2.28 5.218 3.357a18.434 18.434 0 015.557 5.02c.383.543.818 1.065 1.222 1.566 2.603 3.463 7.64 2.898 10.18-.31.246-.444.354-.953.308-1.46v-5.946c3.772-1.322 5.78-3.623 6.439-7.396-.064 0-.17 0-.192.075-2.21 3.996-5.716 4.635-9.765 3.75a325.384 325.384 0 01-12.06-2.866 11.371 11.371 0 01-5.892-3.251 11.427 11.427 0 01-3.034-6.02c-.7-3.41-1.338-6.832-1.986-10.253a7.605 7.605 0 010-1.215c1.53.245 1.88 1.546 2.592 2.686a6.113 6.113 0 00-1.264-5.67.363.363 0 01.127-.533l1.498-.735a.17.17 0 00.08-.257.17.17 0 00-.08-.063 6.298 6.298 0 01-2.628-1.767 6.326 6.326 0 01-1.441-2.826.192.192 0 00-.28-.084.19.19 0 00-.07.084 5.342 5.342 0 00-.405 2.782.855.855 0 01-.841.921.848.848 0 01-.444-.122c-2.125-1.3-2.466-3.613-.723-5.765a30.357 30.357 0 012.54-2.707c1.445-1.46 1.455-3.453.223-3.89-.234-.075-1.36-.437-.51-.714a2.787 2.787 0 013.188.735 2.636 2.636 0 01.36 3.197c-.539.938-1.018 1.91-1.434 2.91-.5 1.406 0 2.515 1.615 3.346a.117.117 0 00.16-.17c-.808-1.525.319-2.345.999-3.358a26.1 26.1 0 002.624-4.56c1.456-3.646-.074-6.395-3.9-7.269-.977-.234-2.04-.31-2.528-1.332a.288.288 0 00-.468-.053c-1.063 1.193-.892 1.982.595 3.602a.566.566 0 01-.276.927 2.861 2.861 0 01-3.26-1.113 2.882 2.882 0 01-.46-1.136.736.736 0 00-.966-.469 1.552 1.552 0 00-1.063 1.599 4.754 4.754 0 01-1.594 3.602c-1.275 1.14-1.232 1.982-.35 3.528.712 1.246.584 1.374-.755 1.832a2.85 2.85 0 00-1.562 1.386 6.535 6.535 0 00-.786 2.323c0 .608.468 1.407.361 2.004-.17.884-1.487 2.206-.414 1.588a4.136 4.136 0 014.622.138 4.867 4.867 0 011.88 3.538c-1.795-1.257-3.378-3.197-5.63-1.428-1.19 1.066-.766 2.43-.383 3.837zm4.399-16.295a1.42 1.42 0 01.127-1.79.999.999 0 011.318-.256l2.125 1.321c.871.427-.382.874-.85.917-.914.064-2.338.309-2.72-.192z" fill="#fff"/><path d="M36.221 18.897c.194.064.377.157.542.277 1.17.746 1.445 1.652.606 2.77a9.723 9.723 0 01-2.295 2.132 1.517 1.517 0 01-2.242-.597c-1.063-2.046-2.625-2.803-4.835-2.025-1.35.47-2.56 1.332-3.889 1.897a3.434 3.434 0 01-1.945.277c-.728-.178-1.44-.42-2.125-.724a.83.83 0 01-.49-.955.832.832 0 01.172-.346c1.38-1.62 2.667-3.197 4.016-4.635a3.335 3.335 0 013.74-1.066 83.034 83.034 0 008.745 2.995zM33.427 43.472c-.847.099-1.698.152-2.55.16.159-1.226.563-1.876 1.498-1.311a1.909 1.909 0 002.571-.405 3.695 3.695 0 014.463-.831c.458.14.935.207 1.413.202v-.298a5.509 5.509 0 01-1.296-1.066c-1.063-1.481-2.2-2.515-4.144-2.238a1.208 1.208 0 01-.638-.107c-1.062-.511-.956-1.523-.84-2.419.118-.895.893-.415 1.446-.437.553-.02 1.573 0 1.976-.373 1.286-1.225 2.582-.98 4.028-.5 1.19.394 2.433.863 3.58-.203a3.27 3.27 0 01-.53 3.549 2.133 2.133 0 00-.564 2.131c.127 1.173.489 2.483-.914 3.325-.17.096-.053.949.16 1.311a1.236 1.236 0 001.179.778c.744 0-.765 1.854-1.063 1.439l-.51-.81c-1.88-3.304-3.814-3.975-7.289-2.569a9.74 9.74 0 01-1.976.672zM45.264 9.849c-.531-.213-.446 1.065-.585.746-.35-.832-1.392-3.197-1.317-2.622-.087.998-.28 1.984-.574 2.941-.064.256-.35.533-.361 0-.128-2.046-1.669-3.197-2.784-4.667a23.882 23.882 0 01-1.488-2.452c-.148-.18.223-.405.404-.287l3.315 2.355c.117.074.287.106.234-.075-.234-1.193-2.2-3.836-1.732-3.762 1.217.27 2.3.96 3.06 1.95a17.771 17.771 0 003.656 3.112c3.73 2.132 4.76 4.06 4.016 8.345-.106.64-.276 1.61.223 2.004 1.148.895-.584 4.71-.616 3.548.074-4.689-.935-8.802-5.451-11.136zM42.777 26.41a22.284 22.284 0 01-.456-3.25 1.7 1.7 0 01.649-1.61 1.687 1.687 0 011.72-.192 26.822 26.822 0 014.803 2.132 2.63 2.63 0 011.19 1.982c-.18 2.067-.69 4.092-1.137 6.458l-2.242-1.375a2.626 2.626 0 000-3.42c-.999-1.397-2.21-1.631-4.527-.725zM32.003 1.323l1.679 1.694a.573.573 0 00.967-.277c.17-.735.244-1.374.743-.746.872 1.546.957 3.144 2.243 4.551a.363.363 0 01-.277.618c-3.39-.213-6.843-2.408-6.3-5.574a.576.576 0 01.689-.405.573.573 0 01.256.139zM22.291 10.776a.213.213 0 01-.33-.04.214.214 0 01-.031-.12 4.85 4.85 0 00-2.2-3.943c-.85-.597-1.838-1.066-2.71-1.599-.573-.383-2.603-1.428-1.625-1.428l4.346.629a4.243 4.243 0 012.264.808 4.262 4.262 0 011.465 1.91 3.548 3.548 0 01-1.179 3.783zM28.167 3.305c-.383-.351-.818-.66-1.19-1.066-.829-.82-.818-1.577.18-2.206 1-.32 1.563 1.738 2.274 2.558 1.063 1.172 1.063 1.961.394 2.718-.49.565-.393-.82-1.658-2.004z" fill="#fff"/><path d="M41.12 45.827c.085.522-1.2 0-2.051.341a1.26 1.26 0 01-1.243-.352l-.85-.745a.415.415 0 01.233-.725c2.2-.245 3.73.064 3.91 1.481zM8.116 37.685c.446-.096.712.245.829.608.191.65-.563.682-.776.639a20.946 20.946 0 01-2.507-.714c-.415-.107-.755-.384.138-.394.774.018 1.55-.028 2.316-.139z" fill="#fff"/><path d="M25.788 12.137L22.596 28.73l33.982 7.679-.605-11.622-30.185-12.651z" fill="#BE1E2D"/></svg>